<mxfile host="app.diagrams.net" agent="Mozilla/5.0 (Windows NT 10.0; Win64; x64) AppleWebKit/537.36 (KHTML, like Gecko) Chrome/140.0.0.0 Safari/537.36" version="28.2.1">
  <diagram name="Page-1" id="sK2DE21FikHXBaDjFHhF">
    <mxGraphModel dx="1042" dy="1704" grid="1" gridSize="10" guides="1" tooltips="1" connect="1" arrows="1" fold="1" page="1" pageScale="1" pageWidth="827" pageHeight="1169" math="0" shadow="0">
      <root>
        <mxCell id="0" />
        <mxCell id="1" parent="0" />
        <mxCell id="4Lh6eqojfyItS9gjzbVI-1" value="crm_cust_info" style="swimlane;fontStyle=0;childLayout=stackLayout;horizontal=1;startSize=30;horizontalStack=0;resizeParent=1;resizeParentMax=0;resizeLast=0;collapsible=1;marginBottom=0;whiteSpace=wrap;html=1;rounded=1;fillColor=#dae8fc;strokeColor=#6c8ebf;fontSize=26;" parent="1" vertex="1">
          <mxGeometry x="408" y="290" width="200" height="110" as="geometry">
            <mxRectangle x="330" y="240" width="200" height="40" as="alternateBounds" />
          </mxGeometry>
        </mxCell>
        <mxCell id="4Lh6eqojfyItS9gjzbVI-2" value="cst_id" style="text;strokeColor=none;fillColor=none;align=left;verticalAlign=middle;spacingLeft=4;spacingRight=4;overflow=hidden;points=[[0,0.5],[1,0.5]];portConstraint=eastwest;rotatable=0;whiteSpace=wrap;html=1;fontSize=26;" parent="4Lh6eqojfyItS9gjzbVI-1" vertex="1">
          <mxGeometry y="30" width="200" height="40" as="geometry" />
        </mxCell>
        <mxCell id="4Lh6eqojfyItS9gjzbVI-21" value="cst_key" style="text;strokeColor=none;fillColor=none;align=left;verticalAlign=middle;spacingLeft=4;spacingRight=4;overflow=hidden;points=[[0,0.5],[1,0.5]];portConstraint=eastwest;rotatable=0;whiteSpace=wrap;html=1;fontSize=26;" parent="4Lh6eqojfyItS9gjzbVI-1" vertex="1">
          <mxGeometry y="70" width="200" height="40" as="geometry" />
        </mxCell>
        <mxCell id="4Lh6eqojfyItS9gjzbVI-8" value="crm_prd_info" style="swimlane;fontStyle=0;childLayout=stackLayout;horizontal=1;startSize=30;horizontalStack=0;resizeParent=1;resizeParentMax=0;resizeLast=0;collapsible=1;marginBottom=0;whiteSpace=wrap;html=1;rounded=1;fillColor=#dae8fc;strokeColor=#6c8ebf;fontSize=26;" parent="1" vertex="1">
          <mxGeometry x="404" y="130" width="200" height="70" as="geometry">
            <mxRectangle x="330" y="240" width="200" height="40" as="alternateBounds" />
          </mxGeometry>
        </mxCell>
        <mxCell id="4Lh6eqojfyItS9gjzbVI-9" value="prd_key" style="text;strokeColor=none;fillColor=none;align=left;verticalAlign=middle;spacingLeft=4;spacingRight=4;overflow=hidden;points=[[0,0.5],[1,0.5]];portConstraint=eastwest;rotatable=0;whiteSpace=wrap;html=1;fontSize=26;" parent="4Lh6eqojfyItS9gjzbVI-8" vertex="1">
          <mxGeometry y="30" width="200" height="40" as="geometry" />
        </mxCell>
        <mxCell id="4Lh6eqojfyItS9gjzbVI-10" value="&lt;font style=&quot;font-size: 20px;&quot;&gt;Current &amp;amp; History Product Information&lt;/font&gt;" style="text;html=1;align=center;verticalAlign=middle;whiteSpace=wrap;rounded=0;" parent="1" vertex="1">
          <mxGeometry x="398" y="80" width="230" height="30" as="geometry" />
        </mxCell>
        <mxCell id="4Lh6eqojfyItS9gjzbVI-11" value="crm_sales_details" style="swimlane;fontStyle=0;childLayout=stackLayout;horizontal=1;startSize=30;horizontalStack=0;resizeParent=1;resizeParentMax=0;resizeLast=0;collapsible=1;marginBottom=0;whiteSpace=wrap;html=1;rounded=1;fillColor=#dae8fc;strokeColor=#6c8ebf;fontSize=26;" parent="1" vertex="1">
          <mxGeometry x="50" y="250" width="212" height="110" as="geometry">
            <mxRectangle x="330" y="240" width="200" height="40" as="alternateBounds" />
          </mxGeometry>
        </mxCell>
        <mxCell id="4Lh6eqojfyItS9gjzbVI-12" value="prd_key" style="text;strokeColor=none;fillColor=none;align=left;verticalAlign=middle;spacingLeft=4;spacingRight=4;overflow=hidden;points=[[0,0.5],[1,0.5]];portConstraint=eastwest;rotatable=0;whiteSpace=wrap;html=1;fontSize=26;" parent="4Lh6eqojfyItS9gjzbVI-11" vertex="1">
          <mxGeometry y="30" width="212" height="40" as="geometry" />
        </mxCell>
        <mxCell id="4Lh6eqojfyItS9gjzbVI-14" value="cst_id" style="text;strokeColor=none;fillColor=none;align=left;verticalAlign=middle;spacingLeft=4;spacingRight=4;overflow=hidden;points=[[0,0.5],[1,0.5]];portConstraint=eastwest;rotatable=0;whiteSpace=wrap;html=1;fontSize=26;" parent="4Lh6eqojfyItS9gjzbVI-11" vertex="1">
          <mxGeometry y="70" width="212" height="40" as="geometry" />
        </mxCell>
        <mxCell id="4Lh6eqojfyItS9gjzbVI-13" value="&lt;font style=&quot;font-size: 20px;&quot;&gt;Transactional Records about Sales &amp;amp; Orders&lt;/font&gt;" style="text;html=1;align=center;verticalAlign=middle;whiteSpace=wrap;rounded=0;" parent="1" vertex="1">
          <mxGeometry x="40" y="210" width="230" height="30" as="geometry" />
        </mxCell>
        <mxCell id="4Lh6eqojfyItS9gjzbVI-16" style="edgeStyle=orthogonalEdgeStyle;rounded=0;orthogonalLoop=1;jettySize=auto;html=1;entryX=0;entryY=0.5;entryDx=0;entryDy=0;" parent="1" source="4Lh6eqojfyItS9gjzbVI-14" target="4Lh6eqojfyItS9gjzbVI-2" edge="1">
          <mxGeometry relative="1" as="geometry" />
        </mxCell>
        <mxCell id="4Lh6eqojfyItS9gjzbVI-17" style="edgeStyle=orthogonalEdgeStyle;rounded=0;orthogonalLoop=1;jettySize=auto;html=1;entryX=0.022;entryY=0.7;entryDx=0;entryDy=0;entryPerimeter=0;" parent="1" source="4Lh6eqojfyItS9gjzbVI-12" target="4Lh6eqojfyItS9gjzbVI-9" edge="1">
          <mxGeometry relative="1" as="geometry" />
        </mxCell>
        <mxCell id="4Lh6eqojfyItS9gjzbVI-6" value="&lt;font style=&quot;font-size: 20px;&quot;&gt;Customer information&lt;/font&gt;" style="text;html=1;align=center;verticalAlign=middle;whiteSpace=wrap;rounded=0;" parent="1" vertex="1">
          <mxGeometry x="408" y="255" width="210" height="30" as="geometry" />
        </mxCell>
        <mxCell id="4Lh6eqojfyItS9gjzbVI-18" value="erp_cust_az12" style="swimlane;fontStyle=0;childLayout=stackLayout;horizontal=1;startSize=30;horizontalStack=0;resizeParent=1;resizeParentMax=0;resizeLast=0;collapsible=1;marginBottom=0;whiteSpace=wrap;html=1;rounded=1;fillColor=#fff2cc;strokeColor=#d6b656;fontSize=26;" parent="1" vertex="1">
          <mxGeometry x="716" y="280" width="200" height="70" as="geometry">
            <mxRectangle x="330" y="240" width="200" height="40" as="alternateBounds" />
          </mxGeometry>
        </mxCell>
        <mxCell id="4Lh6eqojfyItS9gjzbVI-19" value="cid" style="text;strokeColor=none;fillColor=none;align=left;verticalAlign=middle;spacingLeft=4;spacingRight=4;overflow=hidden;points=[[0,0.5],[1,0.5]];portConstraint=eastwest;rotatable=0;whiteSpace=wrap;html=1;fontSize=26;" parent="4Lh6eqojfyItS9gjzbVI-18" vertex="1">
          <mxGeometry y="30" width="200" height="40" as="geometry" />
        </mxCell>
        <mxCell id="4Lh6eqojfyItS9gjzbVI-20" value="&lt;font style=&quot;font-size: 20px;&quot;&gt;Extra Customer Information (Birthdate)&lt;/font&gt;" style="text;html=1;align=center;verticalAlign=middle;whiteSpace=wrap;rounded=0;" parent="1" vertex="1">
          <mxGeometry x="710" y="230" width="230" height="30" as="geometry" />
        </mxCell>
        <mxCell id="4Lh6eqojfyItS9gjzbVI-22" style="edgeStyle=orthogonalEdgeStyle;rounded=0;orthogonalLoop=1;jettySize=auto;html=1;entryX=0;entryY=0.5;entryDx=0;entryDy=0;" parent="1" source="4Lh6eqojfyItS9gjzbVI-21" target="4Lh6eqojfyItS9gjzbVI-19" edge="1">
          <mxGeometry relative="1" as="geometry" />
        </mxCell>
        <mxCell id="4Lh6eqojfyItS9gjzbVI-23" value="erp_loc_a101" style="swimlane;fontStyle=0;childLayout=stackLayout;horizontal=1;startSize=30;horizontalStack=0;resizeParent=1;resizeParentMax=0;resizeLast=0;collapsible=1;marginBottom=0;whiteSpace=wrap;html=1;rounded=1;fillColor=#fff2cc;strokeColor=#d6b656;fontSize=26;" parent="1" vertex="1">
          <mxGeometry x="706" y="440" width="200" height="70" as="geometry">
            <mxRectangle x="330" y="240" width="200" height="40" as="alternateBounds" />
          </mxGeometry>
        </mxCell>
        <mxCell id="4Lh6eqojfyItS9gjzbVI-24" value="cid" style="text;strokeColor=none;fillColor=none;align=left;verticalAlign=middle;spacingLeft=4;spacingRight=4;overflow=hidden;points=[[0,0.5],[1,0.5]];portConstraint=eastwest;rotatable=0;whiteSpace=wrap;html=1;fontSize=26;" parent="4Lh6eqojfyItS9gjzbVI-23" vertex="1">
          <mxGeometry y="30" width="200" height="40" as="geometry" />
        </mxCell>
        <mxCell id="4Lh6eqojfyItS9gjzbVI-25" value="&lt;font style=&quot;font-size: 20px;&quot;&gt;Location of Customers(Country)&lt;/font&gt;" style="text;html=1;align=center;verticalAlign=middle;whiteSpace=wrap;rounded=0;" parent="1" vertex="1">
          <mxGeometry x="700" y="390" width="230" height="30" as="geometry" />
        </mxCell>
        <mxCell id="4Lh6eqojfyItS9gjzbVI-26" style="edgeStyle=orthogonalEdgeStyle;rounded=0;orthogonalLoop=1;jettySize=auto;html=1;entryX=1;entryY=0.5;entryDx=0;entryDy=0;" parent="1" source="4Lh6eqojfyItS9gjzbVI-24" target="4Lh6eqojfyItS9gjzbVI-21" edge="1">
          <mxGeometry relative="1" as="geometry" />
        </mxCell>
        <mxCell id="4Lh6eqojfyItS9gjzbVI-27" value="erp_px_cat_g1v2" style="swimlane;fontStyle=0;childLayout=stackLayout;horizontal=1;startSize=30;horizontalStack=0;resizeParent=1;resizeParentMax=0;resizeLast=0;collapsible=1;marginBottom=0;whiteSpace=wrap;html=1;rounded=1;fillColor=#fff2cc;strokeColor=#d6b656;fontSize=26;" parent="1" vertex="1">
          <mxGeometry x="716" y="120" width="200" height="70" as="geometry">
            <mxRectangle x="330" y="240" width="200" height="40" as="alternateBounds" />
          </mxGeometry>
        </mxCell>
        <mxCell id="4Lh6eqojfyItS9gjzbVI-28" value="id" style="text;strokeColor=none;fillColor=none;align=left;verticalAlign=middle;spacingLeft=4;spacingRight=4;overflow=hidden;points=[[0,0.5],[1,0.5]];portConstraint=eastwest;rotatable=0;whiteSpace=wrap;html=1;fontSize=26;" parent="4Lh6eqojfyItS9gjzbVI-27" vertex="1">
          <mxGeometry y="30" width="200" height="40" as="geometry" />
        </mxCell>
        <mxCell id="4Lh6eqojfyItS9gjzbVI-29" value="&lt;font style=&quot;font-size: 20px;&quot;&gt;Product Categories&lt;/font&gt;" style="text;html=1;align=center;verticalAlign=middle;whiteSpace=wrap;rounded=0;" parent="1" vertex="1">
          <mxGeometry x="710" y="70" width="230" height="30" as="geometry" />
        </mxCell>
        <mxCell id="4Lh6eqojfyItS9gjzbVI-30" style="edgeStyle=orthogonalEdgeStyle;rounded=0;orthogonalLoop=1;jettySize=auto;html=1;entryX=1;entryY=0.5;entryDx=0;entryDy=0;" parent="1" source="4Lh6eqojfyItS9gjzbVI-28" target="4Lh6eqojfyItS9gjzbVI-9" edge="1">
          <mxGeometry relative="1" as="geometry" />
        </mxCell>
        <mxCell id="4Lh6eqojfyItS9gjzbVI-31" value="" style="rounded=1;whiteSpace=wrap;html=1;fillColor=none;dashed=1;" parent="1" vertex="1">
          <mxGeometry x="40" y="40" width="590" height="520" as="geometry" />
        </mxCell>
        <mxCell id="4Lh6eqojfyItS9gjzbVI-32" value="&lt;font style=&quot;font-size: 40px;&quot;&gt;CRM&lt;/font&gt;" style="rounded=1;whiteSpace=wrap;html=1;fillColor=#dae8fc;strokeColor=#6c8ebf;" parent="1" vertex="1">
          <mxGeometry x="250" y="4" width="120" height="35" as="geometry" />
        </mxCell>
        <mxCell id="4Lh6eqojfyItS9gjzbVI-33" value="" style="rounded=1;whiteSpace=wrap;html=1;fillColor=none;dashed=1;" parent="1" vertex="1">
          <mxGeometry x="636" y="43" width="340" height="507" as="geometry" />
        </mxCell>
        <mxCell id="4Lh6eqojfyItS9gjzbVI-34" value="&lt;font style=&quot;font-size: 40px;&quot;&gt;ERP&lt;/font&gt;" style="rounded=1;whiteSpace=wrap;html=1;fillColor=#fff2cc;strokeColor=#d6b656;" parent="1" vertex="1">
          <mxGeometry x="765" y="7" width="120" height="35" as="geometry" />
        </mxCell>
        <mxCell id="g0-dFwqodt3Gc49vtpaM-2" value="PRODUCT" style="text;html=1;strokeColor=#b85450;fillColor=#f8cecc;align=center;verticalAlign=middle;whiteSpace=wrap;overflow=hidden;fontSize=20;fontStyle=1" vertex="1" parent="1">
          <mxGeometry x="404" y="195" width="196" height="25" as="geometry" />
        </mxCell>
        <mxCell id="g0-dFwqodt3Gc49vtpaM-4" value="PRODUCT" style="text;html=1;strokeColor=#b85450;fillColor=#f8cecc;align=center;verticalAlign=middle;whiteSpace=wrap;overflow=hidden;fontSize=20;fontStyle=1" vertex="1" parent="1">
          <mxGeometry x="720" y="190" width="196" height="25" as="geometry" />
        </mxCell>
        <mxCell id="g0-dFwqodt3Gc49vtpaM-5" value="CUSTOMER" style="text;html=1;strokeColor=#82b366;fillColor=#d5e8d4;align=center;verticalAlign=middle;whiteSpace=wrap;overflow=hidden;fontSize=20;fontStyle=1" vertex="1" parent="1">
          <mxGeometry x="408" y="400" width="196" height="25" as="geometry" />
        </mxCell>
        <mxCell id="g0-dFwqodt3Gc49vtpaM-6" value="CUSTOMER" style="text;html=1;strokeColor=#82b366;fillColor=#d5e8d4;align=center;verticalAlign=middle;whiteSpace=wrap;overflow=hidden;fontSize=20;fontStyle=1" vertex="1" parent="1">
          <mxGeometry x="720" y="350" width="196" height="25" as="geometry" />
        </mxCell>
        <mxCell id="g0-dFwqodt3Gc49vtpaM-7" value="CUSTOMER" style="text;html=1;strokeColor=#82b366;fillColor=#d5e8d4;align=center;verticalAlign=middle;whiteSpace=wrap;overflow=hidden;fontSize=20;fontStyle=1" vertex="1" parent="1">
          <mxGeometry x="710" y="510" width="196" height="25" as="geometry" />
        </mxCell>
        <mxCell id="g0-dFwqodt3Gc49vtpaM-8" value="SALES" style="text;html=1;strokeColor=#9673a6;fillColor=#e1d5e7;align=center;verticalAlign=middle;whiteSpace=wrap;overflow=hidden;fontSize=20;fontStyle=1" vertex="1" parent="1">
          <mxGeometry x="50" y="360" width="210" height="25" as="geometry" />
        </mxCell>
      </root>
    </mxGraphModel>
  </diagram>
</mxfile>
